#!OML:ASF F:\VICON\USERDATA\INSTALL\Justin_Nancy\Justin_Nancy.ASF
:FULLY-SPECIFIED
:DEGREES
80
root 0.0114304 16.0441 11.3212 -12.7181 1.34725 1.03771
lowerback 14.1723 2.05637 -1.35045
upperback 1.48605 2.61375 1.39219
thorax -6.49869 1.3327 1.72497
lowerneck -18.914 -5.60614 -10.8389
upperneck 20.6858 -6.6076 8.16856
head 10.3945 -2.96482 3.7366
rclavicle -2.81777e-014 -1.11319e-014
rhumerus -35.5064 10.0477 -95.389
rradius 95.1095
rwrist -1.15353
rhand -19.8786 32.2956
rfingers 7.12502
rthumb 6.45699 2.41398
lclavicle -2.81777e-014 -1.11319e-014
lhumerus -59.0999 -8.43927 94.619
lradius 115.179
lwrist 31.0188
lhand -14.466 9.22835
lfingers 7.12502
lthumb 11.6798 38.8828
rfemur -24.3235 -6.00462 16.2116
rtibia 85.2395
rfoot -8.52133 -5.4525
rtoes 0.244355
lfemur -24.1129 -3.63272 -24.2095
ltibia 52.975
lfoot -12.0336 -1.04467
ltoes -5.74171
81
root -0.0244865 15.9563 11.6214 -12.3071 1.00452 1.04213
lowerback 14.2838 2.09231 -1.38012
upperback 1.43733 2.65212 1.34282
thorax -6.61308 1.35209 1.67762
lowerneck -19.3665 -5.61646 -10.8135
upperneck 20.7332 -6.56649 8.10616
head 10.4886 -2.94058 3.71124
rclavicle 1.78658e-014 -1.98785e-015
rhumerus -35.7368 8.29451 -95.5888
rradius 92.963
rwrist 0.380839
rhand -20.5451 30.4586
rfingers 7.12502
rthumb 5.81358 0.558356
lclavicle 1.78658e-014 -1.98785e-015
lhumerus -56.0166 -8.72825 94.259
lradius 113.697
lwrist 29.5417
lhand -15.0538 9.31527
lfingers 7.12502
lthumb 11.1129 39.001
rfemur -27.0457 -5.65674 16.6998
rtibia 84.6038
rfoot -9.21559 -5.90957
rtoes -1.72983
lfemur -24.5564 -3.62288 -24.0051
ltibia 54.9357
lfoot -13.4436 -0.451389
ltoes -5.84786
82
root -0.0461094 15.897 11.9502 -12.326 0.962573 1.76515
lowerback 14.4602 2.07509 -2.0248
upperback 1.47238 2.50708 1.10293
thorax -6.6839 1.29539 1.81228
lowerneck -19.7108 -5.5751 -10.8201
upperneck 20.9511 -6.45454 8.00308
head 10.6167 -2.89487 3.69207
rclavicle 1.29955e-014 -2.34566e-014
rhumerus -36.447 6.45214 -95.6537
rradius 90.6448
rwrist 1.69477
rhand -21.5706 29.5555
rfingers 7.12502
rthumb 4.82339 -0.369557
lclavicle 1.29955e-014 -2.34566e-014
lhumerus -52.9085 -8.60088 93.8301
lradius 111.893
lwrist 27.4304
lhand -15.858 8.89644
lfingers 7.12502
lthumb 10.3371 38.6224
rfemur -28.7482 -5.5239 16.0025
rtibia 83.3725
rfoot -10.148 -5.83696
rtoes -2.97831
lfemur -24.2996 -3.61841 -24.788
ltibia 57.3571
lfoot -15.5489 0.272384
ltoes -4.13093
83
root -0.045333 15.8763 12.3139 -13.067 1.4814 3.48084
lowerback 14.8113 2.08513 -3.38396
upperback 1.83953 2.25262 0.512162
thorax -6.50111 1.19278 2.00217
lowerneck -19.8913 -5.57504 -11.0856
upperneck 21.047 -6.43887 8.32186
head 10.7057 -2.868 3.85606
rclavicle 1.41634e-015 -4.77083e-015
rhumerus -37.368 4.38516 -95.396
rradius 88.4962
rwrist 2.53524
rhand -22.5962 30.0154
rfingers 7.12502
rthumb 3.83307 0.070177
lclavicle 1.41634e-015 -4.77083e-015
lhumerus -49.9926 -8.29362 93.47
lradius 110.144
lwrist 24.6194
lhand -16.7707 8.44186
lfingers 7.12502
lthumb 9.45659 38.2097
rfemur -28.9075 -5.89887 13.6296
rtibia 81.4675
rfoot -11.2748 -5.07302
rtoes -3.23612
lfemur -22.1763 -3.75848 -27.0814
ltibia 58.3048
lfoot -17.2465 1.26616
ltoes -4.2692
84
root -0.110829 15.7317 12.4357 -12.119 -2.02499 -4.05661
lowerback 16.9132 2.0396 4.06499
upperback 0.983005 3.70913 2.62781
thorax -8.3546 1.68561 -0.351955
lowerneck -19.8909 -5.52067 -11.2097
upperneck 20.9846 -6.39855 8.62886
head 10.6941 -2.82324 3.99585
rclavicle -1.59773e-014 7.55382e-015
rhumerus -38.3121 2.63064 -95.0865
rradius 86.7111
rwrist 2.05323
rhand -23.3895 29.9108
rfingers 7.12502
rthumb 3.06694 -0.0469403
lclavicle -1.59773e-014 7.55382e-015
lhumerus -47.4716 -7.77884 93.175
lradius 109.036
lwrist 21.4661
lhand -18.1062 8.53697
lfingers 7.12502
lthumb 8.16781 38.3591
rfemur -32.9258 -2.1958 24.2616
rtibia 78.9233
rfoot -9.1718 -7.86741
rtoes -2.96997
lfemur -24.9898 -1.1461 -17.3003
ltibia 60.8338
lfoot -18.038 0.0908566
ltoes -5.61351
85
root -0.0760596 15.8226 12.9395 -13.7601 1.11209 1.95263
lowerback 15.7149 1.80406 -1.38368
upperback 1.98989 2.20602 0.729966
thorax -6.76887 1.12123 1.09028
lowerneck -19.6785 -5.39987 -11.0787
upperneck 20.9379 -6.27286 8.56024
head 10.6152 -2.7683 3.97017
rclavicle 7.74018e-015 -1.78906e-014
rhumerus -39.7082 1.51931 -94.8379
rradius 85.2367
rwrist 0.294376
rhand -24.413 28.2247
rfingers 7.12502
rthumb 2.07852 -1.74496
lclavicle 7.74018e-015 -1.78906e-014
lhumerus -45.2193 -6.93267 92.884
lradius 108.314
lwrist 18.6128
lhand -19.9086 9.14613
lfingers 7.12502
lthumb 6.42804 39.0286
rfemur -30.3838 -5.36104 15.8711
rtibia 76.2172
rfoot -11.3533 -6.27814
rtoes -5.38635
lfemur -19.8053 -3.17294 -25.489
ltibia 60.091
lfoot -19.887 2.43265
ltoes -5.57238
86
root -0.0981906 15.8292 13.2704 -13.5144 1.65072 1.5528
lowerback 15.3453 1.44458 -1.03584
upperback 1.90027 1.79605 0.761596
thorax -6.63797 0.913333 1.02154
lowerneck -19.6222 -5.30836 -10.8861
upperneck 21.0299 -6.18799 8.44938
head 10.6174 -2.72871 3.91324
rclavicle 1.22625e-014 6.75868e-015
rhumerus -41.1411 0.712271 -94.5194
rradius 83.9317
rwrist -2.17247
rhand -25.3362 27.2714
rfingers 7.12502
rthumb 1.18687 -2.70502
lclavicle 1.22625e-014 6.75868e-015
lhumerus -43.1181 -5.87695 92.6712
lradius 107.853
lwrist 16.1533
lhand -21.5396 9.80431
lfingers 7.12502
lthumb 4.85329 39.7287
rfemur -31.2011 -5.62484 16.424
rtibia 72.9605
rfoot -11.4072 -6.24618
rtoes -5.2668
lfemur -19.0591 -3.34601 -25.1971
ltibia 60.7429
lfoot -21.0382 2.88305
ltoes -4.30886
87
root -0.12188 15.8449 13.601 -13.3688 1.55342 1.42588
lowerback 15.2008 1.35483 -0.978574
upperback 1.82124 1.69149 0.80922
thorax -6.63958 0.861894 1.06348
lowerneck -19.6681 -5.25938 -10.8591
upperneck 21.1378 -6.12877 8.4468
head 10.6577 -2.69926 3.9191
rclavicle -3.3048e-014 3.57812e-015
rhumerus -42.548 0.202144 -94.0784
rradius 82.8893
rwrist -4.94635
rhand -26.1751 27.6672
rfingers 7.12502
rthumb 0.376649 -2.31221
lclavicle -3.3048e-014 3.57812e-015
lhumerus -41.3877 -4.80373 92.6316
lradius 107.83
lwrist 14.5115
lhand -23.0243 9.97155
lfingers 7.12502
lthumb 3.41959 39.9239
rfemur -31.7409 -5.35572 16.8073
rtibia 69.385
rfoot -11.5914 -6.07263
rtoes -5.88059
lfemur -17.6898 -2.86797 -25.0492
ltibia 60.3398
lfoot -21.5746 3.24063
ltoes -3.19976
88
root -0.144987 15.8727 13.9103 -13.0571 0.964319 1.08973
lowerback 15.2629 1.35956 -0.679344
upperback 1.59413 1.75829 0.950226
thorax -6.91429 0.889644 1.02618
lowerneck -19.7655 -5.20857 -10.808
upperneck 21.3089 -6.04108 8.32267
head 10.7226 -2.66835 3.88134
rclavicle -2.54444e-014 5.96354e-015
rhumerus -44.1018 -0.0318883 -93.5761
rradius 82.3082
rwrist -7.25941
rhand -27.1916 27.5553
rfingers 7.12502
rthumb -0.605187 -2.42356
lclavicle -2.54444e-014 5.96354e-015
lhumerus -39.7895 -3.65222 92.618
lradius 108.132
lwrist 13.8727
lhand -24.1395 10.2816
lfingers 7.12502
lthumb 2.34262 40.2484
rfemur -32.4125 -4.62508 17.5587
rtibia 65.4092
rfoot -11.0915 -5.99726
rtoes -6.22127
lfemur -16.7224 -2.06627 -24.5316
ltibia 60.4847
lfoot -22.308 3.76886
ltoes -3.26081
89
root -0.174811 15.9117 14.215 -12.7068 0.186944 0.490429
lowerback 15.2939 1.37721 -0.155999
upperback 1.38215 1.88819 1.17258
thorax -7.15289 0.941451 0.935992
lowerneck -19.7781 -5.07154 -10.774
upperneck 21.2855 -5.85639 8.32577
head 10.6946 -2.58062 3.90595
rclavicle -1.55301e-014 -4.77083e-015
rhumerus -45.6119 -0.177802 -93.0508
rradius 81.9878
rwrist -8.50202
rhand -27.8609 26.9221
rfingers 7.12502
rthumb -1.25155 -3.054
lclavicle -1.55301e-014 -4.77083e-015
lhumerus -38.4859 -2.5412 92.6352
lradius 108.943
lwrist 14.0632
lhand -24.9999 10.8623
lfingers 7.12502
lthumb 1.51171 40.8367
rfemur -32.9674 -3.75673 18.6397
rtibia 61.1424
rfoot -9.75237 -6.02134
rtoes -5.37399
lfemur -15.7717 -1.15989 -23.6188
ltibia 60.4332
lfoot -23.1044 4.06984
ltoes -3.04171
90
root -0.206108 15.9437 14.5352 -12.4053 0.179919 0.361861
lowerback 15.0679 1.17497 -0.193869
upperback 1.29822 1.61965 1.24912
thorax -7.11523 0.813579 1.09906
lowerneck -19.968 -4.85674 -10.7638
upperneck 21.1476 -5.56356 8.46639
head 10.6512 -2.42441 3.99885
rclavicle 1.83876e-015 -1.78906e-014
rhumerus -47.1362 -0.153028 -92.5119
rradius 81.968
rwrist -8.53837
rhand -28.309 26.6983
rfingers 7.12502
rthumb -1.68435 -3.27481
lclavicle 1.83876e-015 -1.78906e-014
lhumerus -37.4271 -1.38428 92.638
lradius 110.037
lwrist 15.0937
lhand -25.8269 11.0287
lfingers 7.12502
lthumb 0.712962 41.0073
rfemur -33.0931 -3.55884 18.9319
rtibia 56.7267
rfoot -8.39693 -6.0628
rtoes -6.97882
lfemur -14.6647 -0.872894 -23.4061
ltibia 60.1458
lfoot -23.815 4.48579
ltoes -3.2925
